<?xml version="1.0" encoding="UTF-8"?>
<svg id="_Слой_2" data-name="Слой 2" xmlns="http://www.w3.org/2000/svg" viewBox="0 0 236 266.9">
  <defs>
    <style>
      .cls-1 {
        fill: #052891;
      }

      .cls-1, .cls-2, .cls-3, .cls-4, .cls-5, .cls-6 {
        stroke-width: 0px;
      }

      .cls-2 {
        fill: #46c8a0;
      }

      .cls-3 {
        fill: #6491f0;
      }

      .cls-4 {
        fill: #e16aff;
      }

      .cls-5 {
        fill: #820aaa;
      }

      .cls-6 {
        fill: #fa235a;
      }
    </style>
  </defs>
  <g id="Layer_1" data-name="Layer 1">
    <g>
      <path class="cls-5" d="M235.8,75.3c-13.8-23.7-34.9-42.4-60.1-53.3l-37.3,86.1c6.9,3,12.6,8.1,16.4,14.6l81-47.4Z"/>
      <path class="cls-2" d="M117.1,212.8c-7.6-.8-15-2.7-22-5.8l-13.9,31.7c13.6,5.9,28.2,9,43,9v-34.6c-2.3.1-4.7,0-7.1-.3Z"/>
      <path class="cls-4" d="M188.6,174.5c-4.5,8.5-10.6,16-18,22.1s-15.9,10.7-25.1,13.5c-6.9,2.1-14,3.2-21.2,3.2v53.6c23,0,45.5-6.2,65.2-18.1,19.7-11.8,35.8-28.8,46.5-49.1l-47.4-25.2Z"/>
      <path class="cls-1" d="M155.4,156.9c-2.2,4.1-5.1,7.7-8.7,10.7-3.6,2.9-7.7,5.2-12.1,6.5-4.4,1.3-9.1,1.8-13.7,1.4-4.6-.5-9.1-1.8-13.2-4s-7.7-5.2-10.6-8.8-5.1-7.7-6.4-12.2c-1.3-4.4-1.8-9.1-1.3-13.7.5-4.6,1.9-9.1,4.1-13.1h0c-.1.2-.2.3-.3.5l-33.2-17.5c-4.3,8.2-7,17.1-8,26.2-1,9.5-.1,19.2,2.6,28.4,2.7,9.2,7.3,17.8,13.3,25.2,6.1,7.4,13.5,13.6,22,18.1,8.4,4.5,17.7,7.4,27.3,8.3,9.5.9,19.2,0,28.4-2.8s17.7-7.4,25.1-13.5c7.4-6.1,13.5-13.6,18-22.1l-33.3-17.6Z"/>
      <path class="cls-6" d="M52.3,131c1.1-8.6,3.8-16.8,7.7-24.3l-30.8-16.3c-5.9,11.2-9.8,23.3-11.5,36-3.1,23.5,1.7,47.3,13.5,67.8l30.2-17.4c-8-13.9-11.2-30-9.1-45.8Z"/>
      <path class="cls-3" d="M124.3,0c-25.6,0-50.7,7-72.6,20.2C29.8,33.5,11.9,52.4,0,75.1l93.1,49c3-5.7,7.5-10.4,13-13.7,5.5-3.3,11.8-5.1,18.2-5.1V0Z"/>
    </g>
  </g>
</svg>