<?xml version="1.0" encoding="UTF-8"?>
<svg id="_Слой_2" data-name="Слой 2" xmlns="http://www.w3.org/2000/svg" viewBox="0 0 1000 780.61">
  <defs>
    <style>
      .cls-1 {
        fill: #6c8cc7;
      }

      .cls-1, .cls-2, .cls-3, .cls-4, .cls-5, .cls-6, .cls-7, .cls-8, .cls-9, .cls-10, .cls-11, .cls-12, .cls-13, .cls-14, .cls-15, .cls-16 {
        stroke-width: 0px;
      }

      .cls-2 {
        fill: #6e8cc7;
      }

      .cls-3 {
        fill: #6b8bc7;
      }

      .cls-4 {
        fill: #6d8dc8;
      }

      .cls-5 {
        fill: #5fbb9e;
      }

      .cls-6 {
        fill: #a977b2;
      }

      .cls-7 {
        fill: #6f378c;
      }

      .cls-8 {
        fill: #e83461;
      }

      .cls-9 {
        fill: #5bba9c;
      }

      .cls-10 {
        fill: #72398e;
      }

      .cls-11 {
        fill: #ab78b2;
      }

      .cls-12 {
        fill: #ac7ab4;
      }

      .cls-13 {
        fill: #e83360;
      }

      .cls-14 {
        fill: #fff;
      }

      .cls-15 {
        fill: #283880;
      }

      .cls-16 {
        fill: #e7315e;
      }
    </style>
  </defs>
  <g id="_Слой_1-2" data-name="Слой 1">
    <path class="cls-9" d="M736.42,428.12c-3.86,0-7.76-.34-11.58.08-4.89.54-5.59-1.56-5.7-5.95-.4-16.3,3.11-14.69-15.03-13.38-6.3.46-12.61.72-18.91,1.18-2.42.18-3.6-.63-3.7-3.15-.45-11.25-2.32-22.32-4.83-33.25-.81-3.52,1.34-3.43,3.22-3.89,8.51-2.05,17.05-4,25.58-5.97q6.69-1.55,4.94-7.99c-3.19-11.86-6.95-23.55-11.98-34.75-1.77-3.94-.78-5.36,2.93-6.85,7.65-3.06,15.17-6.45,22.58-10.04,3.42-1.66,5.14-1.41,6.66,2.39,9.41,23.47,16.7,47.48,20.45,72.58,2.21,14.79,3.04,29.6,3.15,44.51.03,3.56-.77,5.05-4.62,4.75-4.36-.35-8.77-.08-13.16-.08v-.18Z"/>
    <path class="cls-15" d="M344.13,457.91c-3.64-11.3-5.5-22.88-5.64-34.75,1.08-11.63,2.03-23.25,5.59-34.53,5.74-18.17,15.69-33.76,28.36-47.77,10.04,8.62,18.78,18.55,28.32,27.68,1.38,1.32,2.75,2.65,4.12,3.97-4.36,5.75-9.7,10.82-12.31,17.79-9.18,17.31-10.3,35.37-5.08,54.04-6.91,2.37-13.81,4.73-20.72,7.1-7.54,2.16-15.08,4.32-22.63,6.48Z"/>
    <path class="cls-7" d="M509.39,559.01c-15.95,5.36-32.1,9.41-49.11,9.84-22.23.57-43.44-3.46-63.79-12.31,0,0-.05-.15-.05-.15,3.89-8.67,7.77-17.35,11.65-26.02,1.85.5,3.76.84,5.55,1.52,27.29,10.39,54.64,10.63,82.07.59,13.11-4.77,25.03-11.63,35.46-20.89,3.05-2.71,4.79-3.23,7.71.26,5.05,6.03,10.72,11.53,16.13,17.26-1.02,2.14-2.98,3.36-4.69,4.85-12.23,10.67-26.27,18.39-40.94,25.07Z"/>
    <path class="cls-12" d="M5.09,424.16c.95-106.78,34.3-202.05,101.43-285.37,13.15-16.32,27.71-31.29,42.85-45.73,1.91-1.82,3.34-4.5,6.62-.91,3.04,3.31,1.06,4.62-1.07,6.6-41.71,38.66-74.84,83.64-99.2,135.02-18.91,39.89-31.59,81.67-37.95,125.4-3.34,22.99-5.15,46.08-4.79,69.25.86,54.72,11.15,107.67,31.45,158.59.87,2.18,2.52,4.23-1.21,5.84-3.47,1.5-4.88.68-6.17-2.69-7.44-19.34-13.95-38.97-18.87-59.1-8.57-35.09-13.21-70.66-13.1-106.89Z"/>
    <path class="cls-3" d="M454.49,692.78c-25.63.65-50.6-3.57-75.23-10.34-4.52-1.24-6.2-2.57-4.28-7.73,4.04-10.82,7.33-21.94,10.67-33,.84-2.78,1.63-3.54,4.64-2.63,26.28,7.89,53.12,11.12,80.53,9.07,2.62-.2,3.43.76,3.62,3.13.99,12.58,2.01,25.16,3.13,37.73.26,2.88-1.05,3.78-3.6,3.78-6.49-.01-12.99,0-19.48,0Z"/>
    <path class="cls-1" d="M450.5,161.33c0,1.05-.15,2.13.03,3.16.77,4.41-1.08,5.42-5.4,5.61-39.36,1.74-76.4,12.05-111.17,30.6-3.73,1.99-4.74,3.82-2.17,7.56,2.77,4.04,4.87,8.54,7.48,12.7,1.49,2.36.97,3.54-1.35,4.89-16.92,9.89-32.11,22.05-45.96,35.88-2.27,2.26-3.54,1.82-5.47-.17-3.54-3.66-7.13-7.3-10.98-10.62-2.92-2.51-2.49-4.2.07-6.68,14.79-14.37,30.72-27.29,48.47-37.82,3.64-2.16,4.51-3.71,2.1-7.6-6.49-10.44-6.23-10.43,4.63-16.02,28.99-14.93,59.69-24.32,92-28.44,7.83-1,15.74-1.27,23.61-1.98,2.86-.26,4.36.53,4.06,3.68-.17,1.74-.03,3.51-.03,5.27h.09Z"/>
    <path class="cls-13" d="M455.12,131.41c-26.84-.02-53.2,3.55-78.97,11.02-3.67,1.06-5.44.66-6.08-3.32-.38-2.4-1.03-4.87-2.11-7.03-2.52-5.01-.21-6.36,4.38-7.59,68.25-18.37,135.11-14.27,200.76,11.75,4.29,1.7,5.32,3.41,2.95,7.46-2.02,3.45-2.63,9.15-5.38,10.33-2.7,1.16-7.34-2.05-11.07-3.47-33.64-12.87-68.47-19.21-104.48-19.15Z"/>
    <path class="cls-4" d="M999.94,417.75c.14,74.15-12.64,140.06-37.33,203.73-.68,1.76-.67,5.15-3.19,4.7-3.34-.59-6.56-2.35-9.58-4.06-1.15-.65.19-2.26.61-3.32,10.81-27.48,19.38-55.64,25.48-84.53,5.19-24.57,8.73-49.37,10.39-74.45,1.73-26.16,1.49-52.3-.28-78.43-.46-6.82-1.19-13.64-2.07-20.42-.84-6.48,4.29-4.41,7.27-5.25,3.51-.98,4.93.56,5.28,4.24,2,21.16,3.83,42.31,3.43,57.81Z"/>
    <path class="cls-15" d="M526.51,252.22c-6.16-3.41-12.94-5.16-19.6-7.18-2.46-.75-3-1.55-2.31-4,3.12-11.1,6.13-22.24,8.99-33.41.68-2.64,1.69-3.42,4.36-2.63,26.58,7.9,51.1,19.87,73.4,36.41,2.63,1.95,2.2,3.05.49,5.25-7.65,9.8-15.11,19.73-22.64,29.62-1.45-.97-2.91-1.92-4.34-2.92-12.02-8.42-24.42-16.18-38.35-21.13Z"/>
    <path class="cls-16" d="M509.39,559.01c14.68-6.68,28.71-14.4,40.94-25.07,1.7-1.49,3.67-2.7,4.69-4.85,5.83-5.1,10.97-10.87,15.61-17.05,1.8-2.39,2.96-2.54,5.33-.73,7.67,5.85,15.48,11.52,23.36,17.09,2.34,1.65,2.78,2.79.87,5.26-19.79,25.47-44.44,44.59-74.12,57.29-2.83,1.21-3.98.67-5.02-2.09-3.79-9.99-7.76-19.91-11.67-29.85Z"/>
    <path class="cls-9" d="M327.76,117.52c.18,3.16-1.86,3.19-3.13,3.74-14.66,6.37-28.78,13.76-42.36,22.17-34.69,21.48-64.49,48.42-88.96,81.05-3.77,5.03-5.64,1.84-8.67.17-3.94-2.17-2.14-4.12-.29-6.49,2.55-3.26,7.12-7.03,6.69-9.98-.46-3.14-5.55-5.84-8.96-8.26-2.91-2.07-2.89-3.48-.63-6.14,15.4-18.1,32.37-34.57,50.76-49.61,2.82-2.31,4.35-2.46,6.46.77,2.19,3.35,4.54,7.86,7.78,8.91,3.66,1.19,6.55-3.8,9.74-6.07,19.52-13.86,40.23-25.6,62-35.49,5.48-2.49,9.46.08,9.57,5.22Z"/>
    <path class="cls-1" d="M871.27,248.97c-8.23-21.17-18.9-41.13-30.66-60.48-20.82-34.26-45.95-65.09-74.96-92.76-3.05-2.91-6.13-5.79-9.37-8.48-1.99-1.65-1.84-2.85-.19-4.63,10.64-11.43,6.5-11.11,16.83-1.55,39.68,36.73,71.93,79.23,96.98,127.14,5.36,10.26,9.86,20.96,14.91,31.38,1.3,2.69.82,4.07-1.97,5.08-3.63,1.31-7.15,2.91-10.72,4.38-.28-.03-.56-.05-.84-.07Z"/>
    <path class="cls-9" d="M719.41,562.92c-.46.95-.94,2.07-1.53,3.14-6.17,11.23-13.04,22.01-20.41,32.5-1.98,2.82-3.35,2.67-5.77.77-5.24-4.11-10.86-7.76-15.96-12.03-3.03-2.54-4.43-1.78-6.52,1.02-6.52,8.72-13.81,16.79-21.33,24.67-2.42,2.54-4.01,2.52-6.25-.08-2.96-3.45-8.25-6.37-8.73-10.02-.37-2.83,5.02-6.49,7.96-9.68,18.83-20.43,33.8-43.39,44.9-68.85,1.17-2.68,2.15-3.75,5.41-2.46,13.97,5.54,14.02,5.41,7.55,18.85q-3.74,7.77,3.82,11.89c4.63,2.5,9.31,4.9,13.95,7.36,1.19.63,2.71.96,2.9,2.92Z"/>
    <path class="cls-9" d="M396.45,556.39s.05.16.05.15c-4.11,9.49-8.37,18.92-12.25,28.51-1.28,3.17-2.52,3.31-5.36,1.95-21.8-10.42-41.07-24.23-57.36-42.12-5.52-6.57-11.34-12.91-15.72-20.35,8.63-6.01,17.3-11.94,25.85-18.07,3.24-2.32,3.93.6,5.1,2.19,11.73,15.86,25.93,28.99,42.85,39.14,5.41,3.24,10.89,6.38,16.84,8.59Z"/>
    <path class="cls-16" d="M351.21,287.76c20.86-16.6,44.58-27.01,70.59-32.26,7.21-1.45,14.58-2.09,21.87-3.16,3.21-.47,4.68.29,4.7,4.03.04,8.42.55,16.85,1.01,25.27.15,2.74-.35,4.03-3.56,4.25-26.96,1.83-51.26,11-72.99,27.03-.41.31-.93.47-1.4.71-6.74-8.62-13.48-17.24-20.23-25.86Z"/>
    <path class="cls-12" d="M871.27,248.97c.28.02.56.04.84.07,11.84,28.96,20.96,58.73,26.97,89.46.9,4.63.38,7.25-4.7,7.16-5.75-.1-5.97,3.08-5.21,7.52,4.54,26.36,6.48,52.95,5.79,79.65-.96,37.3-6.45,73.99-16.5,109.97-1.12,4-2.49,5.56-6.88,3.89-2.77-1.05-3.02-2.19-2.32-4.59,5.25-17.85,9.17-36,11.89-54.39,4.28-29.05,5.93-58.23,4.14-87.61-1.01-16.48-2.6-32.84-5.46-49.09-.49-2.81.49-3.86,3.21-3.96,3.91-.14,5.11-1.51,4.22-5.95-5.54-27.94-13.34-55.2-24.13-81.54-2.12-5.19-1.64-7.56,3.77-8.81,1.52-.35,2.92-1.18,4.38-1.79Z"/>
    <path class="cls-11" d="M562.45,579.46c1.65-.18,2,1.26,2.64,2.18,5.83,8.33,11.54,16.75,17.46,25.03,1.66,2.33,1.17,3.49-1.03,4.95-23.02,15.29-48.01,25.96-74.84,32.47-2.56.62-3.41-.26-3.9-2.62-2.17-10.27-4.48-20.52-6.74-30.77-.35-1.57-.16-2.67,1.73-3.1,22.79-5.24,43.88-14.41,63.33-27.38.44-.29.92-.52,1.36-.76Z"/>
    <path class="cls-11" d="M654.44,210.11c-8.27-8.94-18.02-16.14-27.81-23.25-2.73-1.98-3.18-3.29-1.12-6.11,6.62-9.08,13.05-18.29,19.33-27.6,1.92-2.84,3.3-3.06,6.07-1.03,18.62,13.63,35.66,29.01,51.46,45.81,2.07,2.2,2,3.45-.24,5.42-9.65,8.43-19.15,17.03-28.71,25.56-6.33-6.27-12.66-12.53-18.99-18.8Z"/>
    <path class="cls-8" d="M126.99,474.03c-10.8,2.05-10.92,2.07-12.21-8.3-8.22-65.97,2.2-128.98,30.22-189.16,4.37-9.39,9.54-18.37,14.38-27.51,2.22-4.2,4.24-2.83,6.89-1.03,2.57,1.74,6.04,2.21,3.1,7.18-23.62,39.94-37.97,83.09-43.59,129.15-.06.52-.01,1.05-.02,1.58-1.8,13.42-2.31,26.9-2.34,40.43-.03,15.99,2.14,31.8,3.57,47.67Z"/>
    <path class="cls-11" d="M582.92,437.69c16.78,1.03,33.41,3.45,50.11,5.25,5.05.54,2.95,4.19,2.61,6.31-2.08,12.79-4.91,25.44-9.72,37.52-1.72,4.32-2.04,10.92-5.99,12.12-3.29,1.01-8.17-2.96-12.28-4.86-10.82-4.98-21.57-10.11-32.43-14.99-2.8-1.25-3.47-2.28-2.17-5.4,4.79-11.49,8.63-23.29,9.2-35.89,0,0,.32-.23.32-.23l.36.15Z"/>
    <path class="cls-5" d="M849.74.15c3.01-.66,5.4.92,7.86,3.29,54.01,52.18,96.8,112.28,127.7,180.78,2.01,4.47,3.96,8.97,6.09,13.37,1.05,2.17.98,3.29-1.61,4.26-7.05,2.65-13.97,5.64-20.93,8.51-1.3.54-2.77,1.4-3.62-.42-1.72-3.65-3.28-7.37-4.85-11.08-.71-1.67.64-2.11,1.76-2.61,3.36-1.51,6.63-3.28,10.1-4.45,4.52-1.53,5.25-3.7,3.14-8.06-8.41-17.38-17.18-34.54-26.99-51.18-27.65-46.89-61.42-88.87-100.98-126.23-.64-.6-1.31-1.18-1.9-1.83-.88-.98-2.54-1.71-1.67-3.42.69-1.36,2.16-.82,3.33-.92.7-.06,1.4-.01,2.57-.01Z"/>
    <path class="cls-3" d="M392.56,390.3c2.61-6.96,7.95-12.03,12.31-17.79,11.39-10.06,24.17-17.24,39.43-19.66,11.29-1.79,11.26-1.97,11.26,9.45,0,12.3-.06,24.59.04,36.89.02,2.89-.1,4.81-3.84,5.29-6.34.81-10.59,5.01-13.82,10.3-5.57-4.06-11.66-7.17-18.05-9.73-8.76-5.57-18.23-9.82-27.34-14.75Z"/>
    <path class="cls-4" d="M369.42,764.92c-12.74-3.18-24.63-6.88-36.29-11.24-52.37-19.58-97.69-49.74-135.89-90.6-2.57-2.75-3.81-4.7-.01-7.31,2.91-1.99,4.47-5.94,9.05-1.06,45.05,48.02,99.35,80.76,163.13,97.61,1.79.47,5.95-.27,4.18,4.03-1.22,2.96.36,7.63-4.16,8.57Z"/>
    <path class="cls-3" d="M559.89,434.77c-6.34.04-12.59-.93-18.83-1.91.09-8.58.75-17.17-1.04-25.68-5.52-26.14-19.51-46.09-43.09-59.04-1.34-.79-2.63-1.67-4.02-2.36q-6.59-3.27-3.8-10.42,4.16-10.66,14.51-5.45c10.89,5.48,20.35,12.87,28.76,21.66,1.26,1.32,2.1,3.4,4.53,3.04-.45,2.02.98,3.17,2,4.58,16.46,22.56,24.47,47.47,20.98,75.58Z"/>
    <path class="cls-5" d="M962.02,482.21c-3.13,25.38-7.65,49.48-14.06,73.19-17.67,65.31-47.17,124.79-88.22,178.56-.64.84-1.45,1.56-1.98,2.46-1.78,3.03-3.54,3.51-6.58,1.12-3.11-2.44-1.43-4,.1-5.96,11.16-14.25,21.47-29.08,30.97-44.48,33.24-53.88,55.58-111.95,66.89-174.23,1.81-9.99,2.96-20.1,4.53-30.14.31-1.99-.28-5.06,3.52-4.46,2.81.45,6.02.51,4.83,3.93Z"/>
    <path class="cls-1" d="M804.71,440.64c-2.21,43.72-12.16,85.58-30.11,125.52-2.01,4.48-4.2,8.87-6.17,13.37-.92,2.09-2.09,2.62-4,1.34-.29-.19-.6-.36-.92-.51q-9.89-4.72-5.27-14.63c17.62-38.1,28.39-77.96,30.89-119.96.1-1.75.38-3.49.65-5.22.54-3.42-1.52-8.41,1.09-9.94,2.84-1.66,7.44-.24,11.27-.35,2.69-.08,3.3,1.07,2.92,3.54-.34,2.24-.26,4.55-.36,6.83Z"/>
    <path class="cls-4" d="M524.33,731.16c-1.51.56-2.21-.19-2.44-1.67-.05-.34-.19-.67-.29-1.01-2.66-8.91-2.64-8.84,6.19-11.04,48.18-12.03,91-34.31,128.29-67.15,3.29-2.9,6.74-5.66,9.68-8.89,2.66-2.92,4.37-2.3,6.7.28,5.73,6.32,6.69,4.53-.23,11-41.39,38.67-89.65,64.61-144.72,77.88-1.02.25-2.07.4-3.18.62Z"/>
    <path class="cls-15" d="M559.89,434.77c3.49-28.1-4.53-53.02-20.98-75.58-1.03-1.41-2.46-2.56-2-4.58,5.59-4.58,11.17-9.17,16.76-13.75,7.47,10.2,14.73,20.53,19.63,32.29,9.3,20.6,11.56,42.25,9.63,64.53,0,0-.36-.15-.36-.15,0,0-.32.23-.32.23-6.66-.74-13.32-1.49-19.99-2.23-.78-.25-1.56-.5-2.35-.75h-.02Z"/>
    <path class="cls-6" d="M372.44,340.86c-12.67,14.02-22.61,29.6-28.36,47.77-3.56,11.27-4.51,22.89-5.59,34.53-5.6,0-11.2-.16-16.79.06-3.42.13-4.73-.39-4.57-4.5,1.04-26.32,8.63-50.43,23.31-72.32,1.11-1.66,3.01-3.12,2.29-5.58,2.1.41,2.89-1.18,4.12-2.4,3.84-3.78,5.92-9.37,11.5-11.38,5.4,3.89,9.84,8.75,14.08,13.82Z"/>
    <path class="cls-5" d="M846.69,387.91c.01,1.38.37,3.03-1.66,3.26-3.49.39-6.99.86-10.48.85-2.52,0-2.1-2.4-2.24-4.04-1.63-18.73-4.87-37.18-9.36-55.43-6.49-26.33-15.6-51.71-27.72-75.96-2.15-4.31-1.78-6.54,2.74-8.09,1.48-.51,2.92-1.27,4.21-2.15,2.46-1.67,3.56-.59,4.69,1.7,16.31,32.88,27.91,67.33,34.67,103.42,2.26,12.08,3.7,24.26,5.16,36.45Z"/>
    <path class="cls-9" d="M344.13,457.91c7.54-2.16,15.08-4.32,22.63-6.48,2.81,9.47,7.33,18.08,12.99,26.15,9.8,13.96,23.02,23.71,38.08,31.25-3.32,6.94-6.65,13.88-9.97,20.82-31.77-14.56-52.99-38.49-63.72-71.73Z"/>
    <path class="cls-11" d="M243.75,627.15c.64.58,1.43,1.26,2.17,1.99,25.79,25.82,55.14,46.54,88.44,61.56,2.5,1.13,2.67,2.26,1.47,4.35-.7,1.21-1.15,2.56-1.74,3.83-4.31,9.25-1.7,10.17-13.26,4.59-32.2-15.55-60.87-36.05-86.23-61.25-2.82-2.8-3.51-4.61-.04-7.22,2.36-1.78,4.29-4.13,6.47-6.17.72-.67,1.23-1.74,2.73-1.67Z"/>
    <path class="cls-15" d="M517.94,456.58c5.43,2.79,10.76,5.79,16.32,8.3,3.39,1.53,3.77,2.84,1.79,6.09-10.64,17.43-25.25,30.21-43.93,38.39-1.43.63-2.87,1.24-4.31,1.87-10.57,3.26-21.26,5.76-32.43,5.52.09-7.35.17-14.7.26-22.05,12.78-.42,24.91-3.43,35.88-10.03,11.37-6.85,20.91-15.62,26.42-28.08Z"/>
    <path class="cls-9" d="M526.51,252.22c13.94,4.95,26.33,12.71,38.35,21.13,1.43,1,2.89,1.95,4.34,2.92,9.31,7.21,17.62,15.49,25.72,24.01,2.35,2.47,2.49,4.04-.39,6.24-5,3.83-9.71,8.04-14.55,12.09-.24.04-.47.03-.7-.04-15.48-18.99-34.77-33-56.95-43.09-3.69-1.68-4.61-3-2.69-6.81,2.67-5.29,4.61-10.95,6.86-16.45Z"/>
    <path class="cls-15" d="M419.9,405.05c6.39,2.55,12.48,5.66,18.05,9.73-4.28,14.1,1.96,25.7,14.86,27.48,6.72.93,12.83-.87,16.89-6.29,2.59-3.46,4.56-3.04,7.58-1.29,4.36,2.53,8.86,4.82,13.3,7.21-.42,2.15-1.86,3.74-3.13,5.39-8.11,10.5-18.96,15.63-32.09,16.2-5.63-.19-10.94-1.9-16.29-3.42-7.5-4.07-13.81-9.46-18.43-16.72-6.52-12.64-7.2-25.39-.75-38.28Z"/>
    <path class="cls-6" d="M455.37,463.47c13.13-.58,23.98-5.7,32.09-16.2,1.27-1.64,2.7-3.23,3.13-5.39,9.38,4.41,18.67,9,27.36,14.7-5.51,12.46-15.05,21.23-26.42,28.08-10.97,6.61-23.1,9.61-35.88,10.03-.21-4.17-.42-8.33-.63-12.5.86-6.23.25-12.48.36-18.72Z"/>
    <path class="cls-3" d="M455.39,516.75c11.16.24,21.86-2.26,32.43-5.52,2.64,7.08,5.28,14.16,7.91,21.24-27.43,10.04-54.78,9.8-82.07-.59-1.78-.68-3.7-1.02-5.55-1.52-.13-.22-.21-.47-.24-.72,3.32-6.94,6.65-13.88,9.97-20.81,12.04,4.93,24.61,7.31,37.55,7.92Z"/>
    <path class="cls-2" d="M126.99,474.03c-1.43-15.87-3.59-31.68-3.57-47.67.02-13.53.54-27.01,2.34-40.43,10.21.7,10.14.69,9.38,10.8-3.72,49.6,3.17,97.66,21.43,143.95,2.1,5.33-.8,5.46-3.97,7.13-3.89,2.05-4.88.48-6.21-2.9-8.99-22.95-15.08-46.67-19.4-70.88Z"/>
    <path class="cls-12" d="M855.43,597.64c-.86,2.08-1.6,4.05-2.48,5.96-17.29,37.33-38.96,71.85-65.76,103.13-13.4,15.63-27.94,30.11-43.1,44.02-3.44,3.15-5.51,3.05-8.1-.7-1.41-2.05-1.29-3,.62-4.66,26.17-22.87,49.3-48.5,69.2-77,15.72-22.5,29.22-46.28,40.38-71.37.6-1.35.63-4.12,3.27-3.07,2.13.84,4.82,1.13,5.97,3.71Z"/>
    <path class="cls-12" d="M190.82,409.72c2.24-41,13.33-79.04,32.69-114.75,1.68-3.1,3.33-3.81,5.94-1.51,2.25,1.99,7.52,1.59,4.17,7.65-19.38,35.12-30.01,72.8-31.11,112.97-.15,5.56-3.22,4.49-6.46,4.65-3.44.18-6.01-.2-5.28-4.68.25-1.54.04-3.15.04-4.33Z"/>
    <path class="cls-9" d="M275.49,446.31c9.69-1.37,19.4-2.66,29.08-4.13,3.63-.55,5.76.02,6.3,4.33,1.24,9.93,4.19,19.46,7.73,28.8.62,1.62,1.79,3.36-.75,4.32-10.12,3.81-19.69,9-30.16,11.91-6.21-14.5-10.09-29.63-12.2-45.23Z"/>
    <path class="cls-7" d="M516.61,387.8c-13.44,7.81-26.94,15.53-40.28,23.51-2.92,1.75-4.96,2.06-6.67-1.14-1.38-2.59-6.02-2.56-5.72-5.93.25-2.81,2.11-5.49,3.29-8.21,4.58-10.57,9.17-21.13,13.76-31.69q2.72-6.25,9.03-3.21c10.7,7.06,20.33,15.19,26.59,26.67Z"/>
    <path class="cls-7" d="M358.36,327.04c-5.58,2.01-7.66,7.59-11.5,11.38-1.24,1.22-2.03,2.81-4.12,2.4-7.62-5.55-15.2-11.17-22.9-16.62-1.93-1.37-2.6-2.29-.89-4.43,9.5-11.95,19.76-23.1,32.26-32.01,6.74,8.62,13.48,17.24,20.23,25.86-3.47,3.08-6.97,6.14-10.4,9.27-1.24,1.13-2.86,2.08-2.67,4.16Z"/>
    <path class="cls-7" d="M579.29,318.57c.23.07.46.09.7.04,8.9,10.68,16.21,22.37,22.49,34.78,1.91,3.77,1.85,5.55-2.47,7.18-7.68,2.91-15.14,6.4-22.65,9.76-1.49.67-3.58.66-4.07,2.83-4.9-11.77-12.17-22.09-19.63-32.3,8.54-7.43,17.08-14.87,25.63-22.3Z"/>
    <path class="cls-9" d="M516.61,387.8c-6.26-11.48-15.88-19.61-26.59-26.67,2.3-4.33,4.6-8.65,6.9-12.98,23.59,12.95,37.57,32.9,43.09,59.04,1.8,8.51,1.13,17.1,1.04,25.68-.34.05-.69.2-1.02.16-4.32-.53-9.51.21-12.72-1.97-3.53-2.4-.8-7.89-1.25-12.01-1.2-11.06-3.94-21.54-9.46-31.24Z"/>
    <path class="cls-10" d="M794.4,657.75c-.63.89-1.23,1.75-1.83,2.6-30.84,43.67-68.75,79.97-113.53,109.14-2.47,1.61-3.89,2.08-5.72-.97-1.68-2.8-1.92-4.06,1.2-6.07,43.99-28.43,81.14-64.03,111.37-106.83.74-1.05,1.22-3.54,3.38-2.2,1.84,1.14,4.14,1.91,5.13,4.32Z"/>
    <path class="cls-8" d="M91.98,780.32c-3.65.49-5.88-.05-7.97-2.25-32.84-34.77-60.62-73.16-83.03-115.43-1.54-2.9-1.47-4.23,1.7-5.9,3.29-1.74,4.37-.69,5.83,2.1,15,28.69,32.75,55.58,53.02,80.82,10.01,12.46,20.62,24.39,31.7,35.91,1.12,1.16,3.55,2.05,2.66,4.02-.85,1.89-3.19.54-3.91.73Z"/>
    <path class="cls-13" d="M305.8,524.54c4.39,7.44,10.21,13.78,15.72,20.35-9.46,8.6-19.04,17.06-28.3,25.87-2.95,2.81-4.54,2.55-6.83-.53-4.8-6.46-9.91-12.69-14.82-19.07-.84-1.09-2.56-2.44-.32-3.88,11.6-7.44,22.35-16.19,34.54-22.73Z"/>
    <path class="cls-8" d="M275.49,446.31c2.11,15.61,6,30.73,12.2,45.23-.1.14-.16.35-.3.43-13.62,7.79-13.67,7.8-18.66-6.86-6.7-19.71-10.06-39.98-10.37-60.8-.06-3.67.5-5.26,4.77-5.09,10.66.44,10.56.21,11,10.87.22,5.42.89,10.81,1.36,16.22Z"/>
    <path class="cls-9" d="M182.67,669.06c-1.88,1.76-3.99,3.83-6.19,5.79-5.59,4.97-5.57,4.92-10.5-.79-12.4-14.36-23.62-29.59-34.01-45.46-2.38-3.63-2.67-5.62,1.68-8.05,9.54-5.34,9.41-5.61,15.55,3.57,9.67,14.45,20.11,28.3,31.58,41.37.78.89,1.89,1.61,1.9,3.57Z"/>
    <path class="cls-8" d="M554.49,179.8c1.38.54,2.21.84,3.01,1.18,19.74,8.42,38.22,19.03,55.53,31.74,2.69,1.98,2.72,3.14.76,5.67-5.58,7.17-5.45,7.27-12.67,2.2-14.95-10.5-30.65-19.71-47.58-26.64-3.73-1.53-5-3.19-2.8-6.79,1.45-2.37,1.51-5.57,3.75-7.36Z"/>
    <path class="cls-1" d="M654.44,210.11c6.33,6.27,12.66,12.53,18.99,18.8,7.27,8.91,14.65,17.72,21.34,27.09,1.87,2.62,1.74,4.02-1.13,5.58-2.89,1.57-5.54,3.61-8.29,5.45-1.45-.76-2.17-2.16-3.15-3.37-4.78-5.9-8.4-12.74-14.33-17.71-5.66-8.2-12.89-15.01-19.89-21.98-2.48-2.48-3.07-4.14-.34-6.66,2.42-2.23,4.54-4.79,6.8-7.2Z"/>
    <path class="cls-7" d="M667.87,245.96c5.93,4.97,9.55,11.81,14.33,17.71.98,1.21,1.7,2.61,3.15,3.37,3.97,6.56,7.88,13.17,11.96,19.67,1.44,2.3,1.76,3.57-1.12,5.19-8.99,5.05-8.95,5.24-14.3-3.65-6.41-10.65-13.4-20.9-21.32-30.46-2.16-2.61-2.29-4.08.55-6.04,2.42-1.68,4.52-3.83,6.76-5.78Z"/>
    <path class="cls-8" d="M268.76,592.99c-3.05,2.74-5.61,5.76-8.83,7.7-2.21,1.33-3.33-1.85-4.57-3.24-6.29-7.08-12-14.64-17.67-22.23-2.04-2.74-1.88-4.1,1.08-6.03,7.34-4.79,7.12-4.86,12.65,2.32,4.81,6.25,9.92,12.27,14.89,18.4.75.93,1.48,1.87,2.44,3.09Z"/>
    <path class="cls-4" d="M249.61,260.84c-2.79-1.06-4.58-2.52-6.07-4.21-1.61-1.83.57-2.82,1.42-3.87,10.09-12.43,21.19-23.89,33.25-34.43,2.04-1.78,3.52-2.67,5.41.14,1.5,2.23,3.99,3.64.42,6.64-11.74,9.82-22.26,20.89-31.94,32.75-.86,1.06-1.75,2.1-2.49,2.98Z"/>
    <path class="cls-3" d="M559.91,434.78c.78.25,1.56.5,2.35.75-.94.24-1.85.38-2.35-.75Z"/>
    <path class="cls-14" d="M455.39,516.75c-12.94-.61-25.52-2.99-37.55-7.92-15.05-7.54-28.28-17.3-38.08-31.25-5.66-8.06-10.19-16.67-12.99-26.15,6.91-2.37,13.81-4.73,20.72-7.1.35-.04.71-.04,1.04-.14,3.2-.89,6.63-2.98,9.54-2.4,3.36.66,2.98,5.44,4.62,8.24,1.26,2.16,2.17,2.71,4.38,1.32,4.46-2.79,9.06-5.36,13.6-8.02,4.61,7.26,10.92,12.65,18.42,16.72-1.78,4.16-3.39,8.41-5.4,12.46-1.78,3.58-1.48,5.44,2.84,6.68,6.08,1.75,12.14,3.11,18.48,3,.21,4.17.42,8.33.63,12.5-.09,7.35-.17,14.7-.26,22.05Z"/>
    <path class="cls-16" d="M420.66,443.33c-4.54,2.66-9.14,5.23-13.6,8.02-2.21,1.38-3.11.84-4.38-1.32-1.63-2.8-1.26-7.57-4.62-8.24-2.91-.57-6.34,1.51-9.54,2.4-.33.09-.69.09-1.04.14-5.22-18.66-4.09-36.73,5.08-54.04,9.1,4.93,18.58,9.18,27.34,14.75-6.45,12.89-5.76,25.64.75,38.28Z"/>
    <path class="cls-5" d="M455.01,482.19c-6.34.11-12.4-1.25-18.48-3-4.32-1.24-4.62-3.09-2.84-6.68,2.01-4.05,3.61-8.3,5.4-12.46,5.35,1.52,10.66,3.23,16.29,3.42-.11,6.24.5,12.49-.36,18.72Z"/>
  </g>
</svg>